# xmcd
#
# Track frame offsets:
#	150
#	19373
#	36370
#	53618
#	77521
#	93340
#	109586
#	130751
#	162036
#
# Disc length: 2349 seconds
#
# Revision: 0
# Processed by: cddbd v1.5.1PL0 Copyright (c) Steve Scherf et al.
# Submitted via: dBpowerAMP V4.0
#
DISCID=63092b09
DTITLE=Maynard Brothers Band, The - Take It From Me
DYEAR=2004
DGENRE=Blues
TTITLE0=Your Blues Is Killing Me
TTITLE1=Used To Do Before
TTITLE2=All The Good Ones Are Taken
TTITLE3=You Me and Luther
TTITLE4=It All Broke Loose
TTITLE5=Leave The Rest For Me
TTITLE6=Love Don't Wait
TTITLE7=Take It From Me
TTITLE8=Without You Loving Me
EXTD=
EXTT0=
EXTT1=
EXTT2=
EXTT3=
EXTT4=
EXTT5=
EXTT6=
EXTT7=
EXTT8=
PLAYORDER=
